<?xml version="1.0" encoding="UTF-8"?>
<svg id="Layer_2" data-name="Layer 2" xmlns="http://www.w3.org/2000/svg" viewBox="0 0 137.03 137.03">
  <defs>
    <style>
      .cls-1 {
        fill: #facaca;
      }
    </style>
  </defs>
  <g id="Layer_1-2" data-name="Layer 1">
    <path class="cls-1" d="m40.14.48c-7.29.34-12.27,1.51-16.62,3.22-4.5,1.76-8.32,4.11-12.12,7.92-3.8,3.81-6.14,7.63-7.88,12.14-1.69,4.36-2.83,9.34-3.15,16.64C.04,47.7-.03,50.04,0,68.65c.04,18.61.12,20.94.47,28.25.35,7.29,1.51,12.27,3.22,16.62,1.76,4.5,4.11,8.32,7.93,12.12,3.81,3.8,7.63,6.13,12.15,7.88,4.36,1.68,9.34,2.83,16.63,3.15,7.29.32,9.64.39,28.24.36,18.6-.04,20.94-.12,28.25-.46,7.31-.35,12.26-1.51,16.61-3.22,4.5-1.76,8.32-4.11,12.12-7.93,3.8-3.82,6.14-7.64,7.88-12.15,1.69-4.36,2.84-9.34,3.15-16.63.32-7.31.4-9.65.36-28.25-.04-18.6-.12-20.94-.47-28.24-.35-7.31-1.51-12.27-3.22-16.62-1.76-4.5-4.11-8.32-7.92-12.12-3.81-3.8-7.64-6.14-12.15-7.88-4.36-1.69-9.34-2.84-16.63-3.15C89.34.05,86.99-.03,68.39,0c-18.61.04-20.94.11-28.25.47m.8,123.86c-6.68-.29-10.31-1.4-12.73-2.33-3.2-1.23-5.48-2.72-7.89-5.11-2.41-2.39-3.89-4.67-5.14-7.87-.94-2.42-2.07-6.04-2.38-12.72-.34-7.22-.41-9.39-.45-27.68-.04-18.29.03-20.46.35-27.68.29-6.67,1.4-10.31,2.33-12.72,1.23-3.2,2.72-5.48,5.11-7.89,2.39-2.41,4.67-3.89,7.87-5.14,2.42-.94,6.04-2.06,12.72-2.38,7.23-.34,9.39-.41,27.68-.45,18.29-.04,20.46.03,27.69.35,6.67.29,10.31,1.4,12.72,2.33,3.2,1.23,5.48,2.71,7.89,5.11,2.41,2.39,3.89,4.67,5.14,7.87.94,2.41,2.07,6.03,2.38,12.71.34,7.23.42,9.39.45,27.68.03,18.29-.03,20.46-.35,27.68-.29,6.68-1.4,10.31-2.33,12.73-1.23,3.2-2.72,5.48-5.11,7.89-2.39,2.41-4.67,3.89-7.87,5.14-2.41.94-6.04,2.07-12.71,2.38-7.23.34-9.39.41-27.69.45s-20.46-.03-27.68-.35M96.8,31.9c0,4.54,3.69,8.22,8.24,8.21,4.54,0,8.22-3.69,8.21-8.24,0-4.54-3.69-8.22-8.24-8.21,0,0,0,0,0,0-4.54,0-8.21,3.7-8.2,8.24m-63.46,36.69c.04,19.43,15.82,35.15,35.25,35.11,19.43-.04,35.15-15.82,35.12-35.25-.04-19.43-15.82-35.15-35.25-35.11s-35.15,15.82-35.11,35.25m12.34-.02c-.02-12.61,10.18-22.86,22.79-22.88,12.61-.02,22.86,10.18,22.88,22.79.02,12.61-10.18,22.86-22.79,22.88-12.61.03-22.86-10.18-22.88-22.79,0,0,0,0,0,0"/>
  </g>
</svg>