<?xml version="1.0" encoding="UTF-8"?>
<svg id="Layer_2" data-name="Layer 2" xmlns="http://www.w3.org/2000/svg" viewBox="0 0 132.05 132.05">
  <defs>
    <style>
      .cls-1 {
        fill: #cfcfce;
      }
    </style>
  </defs>
  <g id="Layer_1-2" data-name="Layer 1">
    <g id="SVGRepo_iconCarrier" data-name="SVGRepo iconCarrier">
      <path class="cls-1" d="m120.11,0H11.95C5.35,0,0,5.35,0,11.95v108.16c0,6.6,5.35,11.95,11.95,11.95h108.16c6.6,0,11.95-5.35,11.95-11.95V11.95c0-6.6-5.35-11.95-11.95-11.95ZM40.86,114.02c0,1.92-1.56,3.48-3.48,3.48h-14.8c-1.92,0-3.48-1.56-3.48-3.48v-62.03c0-1.92,1.56-3.48,3.48-3.48h14.8c1.92,0,3.48,1.56,3.48,3.48v62.03Zm-10.88-71.35c-7.76,0-14.06-6.29-14.06-14.06s6.29-14.06,14.06-14.06,14.06,6.29,14.06,14.06-6.29,14.06-14.06,14.06Zm88.21,71.63c0,1.77-1.43,3.2-3.2,3.2h-15.88c-1.77,0-3.2-1.43-3.2-3.2v-29.1c0-4.34,1.27-19.02-11.34-19.02-9.79,0-11.77,10.05-12.17,14.56v33.56c0,1.77-1.43,3.2-3.2,3.2h-15.36c-1.77,0-3.2-1.43-3.2-3.2v-62.59c0-1.77,1.43-3.2,3.2-3.2h15.36c1.77,0,3.2,1.43,3.2,3.2v5.41c3.63-5.45,9.02-9.65,20.5-9.65,25.43,0,25.28,23.75,25.28,36.81v30.02h0Z"/>
    </g>
  </g>
</svg>