<?xml version="1.0" encoding="UTF-8"?>
<svg id="Layer_2" data-name="Layer 2" xmlns="http://www.w3.org/2000/svg" viewBox="0 0 132.17 132.8">
  <defs>
    <style>
      .cls-1 {
        fill: #facaca;
      }
    </style>
  </defs>
  <g id="Layer_1-2" data-name="Layer 1">
    <path class="cls-1" d="m96.36,79.58c-1.64-.82-9.73-4.8-11.23-5.35-1.51-.55-2.61-.82-3.71.83-1.09,1.64-4.24,5.35-5.2,6.44-.96,1.1-1.92,1.23-3.56.41-1.64-.83-6.94-2.56-13.22-8.16-4.89-4.36-8.19-9.74-9.15-11.39-.96-1.64-.1-2.53.72-3.35.74-.74,1.65-1.92,2.47-2.88.82-.96,1.1-1.65,1.65-2.75.55-1.1.28-2.05-.14-2.88s-3.7-8.92-5.07-12.21c-1.34-3.2-2.69-2.77-3.7-2.82-.96-.04-2.05-.06-3.15-.06s-2.88.41-4.38,2.06c-1.51,1.64-5.75,5.62-5.75,13.72s5.89,15.91,6.71,17.01c.82,1.1,11.6,17.71,28.09,24.83,3.92,1.69,6.98,2.71,9.37,3.46,3.94,1.26,7.53,1.08,10.35.65,3.16-.47,9.73-3.98,11.1-7.82,1.37-3.84,1.37-7.13.96-7.82-.41-.69-1.51-1.1-3.15-1.92m-30,40.96h-.02c-9.8,0-19.41-2.63-27.84-7.62l-2-1.18-20.7,5.43,5.52-20.19-1.3-2.07c-5.48-8.72-8.37-18.81-8.36-29.1,0-30.16,24.55-54.69,54.71-54.69,14.61,0,28.34,5.7,38.67,16.04,10.29,10.24,16.05,24.18,16.01,38.7-.02,30.16-24.55,54.69-54.7,54.69M112.91,19.3C100.6,6.9,83.83-.05,66.36,0,30.09,0,.57,29.52.55,65.8c0,11.6,3.03,22.92,8.79,32.9L0,132.8l34.89-9.15c9.65,5.26,20.46,8.01,31.45,8.01h.03c36.26,0,65.79-29.52,65.81-65.81.05-17.47-6.88-34.23-19.26-46.55Z"/>
  </g>
</svg>